<mxfile host="app.diagrams.net" modified="2020-07-24T03:38:14.208Z" agent="5.0 (Macintosh; Intel Mac OS X 10_15_5) AppleWebKit/537.36 (KHTML, like Gecko) Chrome/84.0.4147.89 Safari/537.36" etag="Xx5Lsa_Ce2x7EJyRbov6" version="13.5.1" type="github">
  <diagram id="elwhyj4fdwue1sdrTzf3" name="Page-1">
    <mxGraphModel dx="2852" dy="1412" grid="1" gridSize="10" guides="1" tooltips="1" connect="1" arrows="1" fold="1" page="1" pageScale="1" pageWidth="827" pageHeight="1169" math="0" shadow="0">
      <root>
        <mxCell id="0" />
        <mxCell id="1" parent="0" />
        <mxCell id="IIdtJhchTJpBkHJc9AqT-1" value="" style="rounded=1;whiteSpace=wrap;html=1;fillColor=#dae8fc;strokeColor=#6c8ebf;" vertex="1" parent="1">
          <mxGeometry x="270" y="338" width="545.3703703703703" height="593.3333333333334" as="geometry" />
        </mxCell>
        <mxCell id="IIdtJhchTJpBkHJc9AqT-2" value="" style="rounded=1;whiteSpace=wrap;html=1;fillColor=#d5e8d4;strokeColor=#82b366;" vertex="1" parent="1">
          <mxGeometry x="1274.6296296296296" y="338" width="545.3703703703703" height="593.3333333333334" as="geometry" />
        </mxCell>
        <mxCell id="IIdtJhchTJpBkHJc9AqT-3" value="&lt;font style=&quot;font-size: 29px&quot;&gt;Native/JS&lt;/font&gt;" style="text;html=1;resizable=0;points=[];autosize=1;align=left;verticalAlign=top;spacingTop=-4;" vertex="1" parent="1">
          <mxGeometry x="1446.8518518518517" y="367.6666666666667" width="140" height="20" as="geometry" />
        </mxCell>
        <mxCell id="IIdtJhchTJpBkHJc9AqT-4" value="&lt;font style=&quot;font-size: 30px&quot;&gt;JS/Native&lt;/font&gt;" style="text;html=1;resizable=0;points=[];autosize=1;align=left;verticalAlign=top;spacingTop=-4;" vertex="1" parent="1">
          <mxGeometry x="456.5740740740741" y="367.6666666666667" width="140" height="20" as="geometry" />
        </mxCell>
        <mxCell id="IIdtJhchTJpBkHJc9AqT-5" value="" style="whiteSpace=wrap;html=1;aspect=fixed;fillColor=#60a917;strokeColor=#2D7600;fontColor=#ffffff;" vertex="1" parent="1">
          <mxGeometry x="1326" y="486" width="374" height="374" as="geometry" />
        </mxCell>
        <mxCell id="IIdtJhchTJpBkHJc9AqT-6" value="" style="whiteSpace=wrap;html=1;aspect=fixed;fillColor=#b1ddf0;strokeColor=#10739e;" vertex="1" parent="1">
          <mxGeometry x="327" y="486" width="384" height="384" as="geometry" />
        </mxCell>
        <mxCell id="IIdtJhchTJpBkHJc9AqT-7" value="&lt;font style=&quot;font-size: 20px&quot;&gt;CallBackQueue&lt;/font&gt;" style="text;html=1;resizable=0;points=[];autosize=1;align=left;verticalAlign=top;spacingTop=-4;" vertex="1" parent="1">
          <mxGeometry x="356.1111111111111" y="486.33333333333337" width="150" height="20" as="geometry" />
        </mxCell>
        <mxCell id="IIdtJhchTJpBkHJc9AqT-8" value="&lt;font style=&quot;font-size: 20px&quot;&gt;CallBack&lt;/font&gt;" style="rounded=0;whiteSpace=wrap;html=1;fillColor=#1ba1e2;strokeColor=#006EAF;fontColor=#ffffff;" vertex="1" parent="1">
          <mxGeometry x="356.1111111111111" y="578.3" width="143.51851851851853" height="59.33333333333334" as="geometry" />
        </mxCell>
        <mxCell id="IIdtJhchTJpBkHJc9AqT-9" value="&lt;font style=&quot;font-size: 19px&quot;&gt;CallBackId&lt;/font&gt;" style="rounded=0;whiteSpace=wrap;html=1;fillColor=#f0a30a;strokeColor=#BD7000;fontColor=#ffffff;" vertex="1" parent="1">
          <mxGeometry x="513.9814814814815" y="578.3" width="143.51851851851853" height="59.33333333333334" as="geometry" />
        </mxCell>
        <mxCell id="IIdtJhchTJpBkHJc9AqT-10" value="&lt;font style=&quot;font-size: 24px&quot;&gt;Handler&lt;/font&gt;" style="rounded=0;whiteSpace=wrap;html=1;fillColor=#1ba1e2;strokeColor=#006EAF;fontColor=#ffffff;" vertex="1" parent="1">
          <mxGeometry x="1532.962962962963" y="575.3333333333334" width="149.25925925925927" height="59.33333333333334" as="geometry" />
        </mxCell>
        <mxCell id="IIdtJhchTJpBkHJc9AqT-11" value="&lt;font style=&quot;font-size: 20px&quot;&gt;HanderName&lt;/font&gt;" style="rounded=0;whiteSpace=wrap;html=1;fillColor=#f0a30a;strokeColor=#BD7000;fontColor=#ffffff;" vertex="1" parent="1">
          <mxGeometry x="1357.8703703703702" y="575.3333333333334" width="149.25925925925927" height="59.33333333333334" as="geometry" />
        </mxCell>
        <mxCell id="IIdtJhchTJpBkHJc9AqT-12" style="edgeStyle=orthogonalEdgeStyle;rounded=0;orthogonalLoop=1;jettySize=auto;html=1;endArrow=none;endFill=0;strokeColor=#b85450;gradientColor=#ea6b66;fillColor=#f8cecc;strokeWidth=5;" edge="1" parent="1" source="IIdtJhchTJpBkHJc9AqT-13">
          <mxGeometry relative="1" as="geometry">
            <mxPoint x="958.8888888888889" y="575.3333333333334" as="targetPoint" />
          </mxGeometry>
        </mxCell>
        <mxCell id="IIdtJhchTJpBkHJc9AqT-13" value="&lt;font style=&quot;font-size: 23px&quot;&gt;Args&lt;/font&gt;" style="rounded=0;whiteSpace=wrap;html=1;fillColor=#f8cecc;strokeColor=#b85450;" vertex="1" parent="1">
          <mxGeometry x="757.9629629629629" y="480.4000000000001" width="143.51851851851853" height="59.33333333333334" as="geometry" />
        </mxCell>
        <mxCell id="IIdtJhchTJpBkHJc9AqT-14" style="edgeStyle=orthogonalEdgeStyle;rounded=0;orthogonalLoop=1;jettySize=auto;html=1;exitX=1;exitY=0.5;exitDx=0;exitDy=0;endArrow=none;endFill=0;strokeColor=#b85450;gradientColor=#ea6b66;fillColor=#f8cecc;strokeWidth=5;" edge="1" parent="1" source="IIdtJhchTJpBkHJc9AqT-15">
          <mxGeometry relative="1" as="geometry">
            <mxPoint x="958.8888888888889" y="605" as="targetPoint" />
          </mxGeometry>
        </mxCell>
        <mxCell id="IIdtJhchTJpBkHJc9AqT-15" value="&lt;span style=&quot;line-height: 120%&quot;&gt;&lt;font style=&quot;font-size: 18px&quot;&gt;HanderName&lt;/font&gt;&lt;/span&gt;" style="rounded=0;whiteSpace=wrap;html=1;fillColor=#d5e8d4;strokeColor=#82b366;" vertex="1" parent="1">
          <mxGeometry x="757.9629629629629" y="406.23333333333335" width="143.51851851851853" height="59.33333333333334" as="geometry" />
        </mxCell>
        <mxCell id="IIdtJhchTJpBkHJc9AqT-16" style="edgeStyle=orthogonalEdgeStyle;rounded=0;orthogonalLoop=1;jettySize=auto;html=1;endArrow=none;endFill=0;strokeColor=#996185;gradientColor=#d5739d;fillColor=#e6d0de;strokeWidth=5;" edge="1" parent="1" source="IIdtJhchTJpBkHJc9AqT-17">
          <mxGeometry relative="1" as="geometry">
            <mxPoint x="1441.111111111111" y="1050" as="targetPoint" />
          </mxGeometry>
        </mxCell>
        <mxCell id="IIdtJhchTJpBkHJc9AqT-17" value="&lt;font style=&quot;font-size: 20px&quot;&gt;CallBackId&lt;/font&gt;" style="rounded=0;whiteSpace=wrap;html=1;fillColor=#f0a30a;strokeColor=#BD7000;fontColor=#ffffff;" vertex="1" parent="1">
          <mxGeometry x="1369.3518518518517" y="901.6666666666667" width="143.51851851851853" height="59.33333333333334" as="geometry" />
        </mxCell>
        <mxCell id="IIdtJhchTJpBkHJc9AqT-18" style="edgeStyle=orthogonalEdgeStyle;rounded=0;orthogonalLoop=1;jettySize=auto;html=1;endArrow=none;endFill=0;strokeColor=#996185;gradientColor=#d5739d;fillColor=#e6d0de;strokeWidth=5;" edge="1" parent="1" source="IIdtJhchTJpBkHJc9AqT-19">
          <mxGeometry relative="1" as="geometry">
            <mxPoint x="1447.2477650063856" y="1049.7954022988506" as="targetPoint" />
            <Array as="points">
              <mxPoint x="1607.5925925925926" y="1050" />
            </Array>
          </mxGeometry>
        </mxCell>
        <mxCell id="IIdtJhchTJpBkHJc9AqT-19" value="&lt;font style=&quot;font-size: 23px&quot;&gt;response&lt;/font&gt;" style="rounded=0;whiteSpace=wrap;html=1;fillColor=#f8cecc;strokeColor=#b85450;" vertex="1" parent="1">
          <mxGeometry x="1535.8333333333333" y="901.6666666666667" width="143.51851851851853" height="59.33333333333334" as="geometry" />
        </mxCell>
        <mxCell id="IIdtJhchTJpBkHJc9AqT-20" value="" style="endArrow=classic;html=1;strokeColor=#996185;rounded=0;gradientColor=#d5739d;fillColor=#e6d0de;entryX=0.5;entryY=1;entryDx=0;entryDy=0;strokeWidth=5;" edge="1" parent="1" target="IIdtJhchTJpBkHJc9AqT-9">
          <mxGeometry width="50" height="50" relative="1" as="geometry">
            <mxPoint x="1446.851851851851" y="1050" as="sourcePoint" />
            <mxPoint x="499.62962962962956" y="1020.3333333333335" as="targetPoint" />
            <Array as="points">
              <mxPoint x="585.7407407407408" y="1050" />
            </Array>
          </mxGeometry>
        </mxCell>
        <mxCell id="IIdtJhchTJpBkHJc9AqT-21" value="" style="endArrow=classic;html=1;strokeColor=#b85450;exitX=1;exitY=0.5;exitDx=0;exitDy=0;gradientColor=#ea6b66;fillColor=#f8cecc;strokeWidth=5;" edge="1" parent="1" source="IIdtJhchTJpBkHJc9AqT-9">
          <mxGeometry width="50" height="50" relative="1" as="geometry">
            <mxPoint x="872.7777777777777" y="723.6666666666667" as="sourcePoint" />
            <mxPoint x="1360.74074074074" y="605" as="targetPoint" />
          </mxGeometry>
        </mxCell>
        <mxCell id="IIdtJhchTJpBkHJc9AqT-22" value="" style="endArrow=classic;html=1;strokeColor=#996185;entryX=0.5;entryY=0;entryDx=0;entryDy=0;exitX=0.5;exitY=1;exitDx=0;exitDy=0;gradientColor=#d5739d;fillColor=#e6d0de;strokeWidth=5;" edge="1" parent="1" source="IIdtJhchTJpBkHJc9AqT-10" target="IIdtJhchTJpBkHJc9AqT-19">
          <mxGeometry width="50" height="50" relative="1" as="geometry">
            <mxPoint x="1102.4074074074074" y="753.3333333333334" as="sourcePoint" />
            <mxPoint x="1245.9259259259259" y="694" as="targetPoint" />
          </mxGeometry>
        </mxCell>
        <mxCell id="IIdtJhchTJpBkHJc9AqT-23" value="" style="endArrow=classic;html=1;strokeColor=#996185;entryX=0.56;entryY=0.02;entryDx=0;entryDy=0;entryPerimeter=0;rounded=0;gradientColor=#d5739d;fillColor=#e6d0de;strokeWidth=5;" edge="1" parent="1" target="IIdtJhchTJpBkHJc9AqT-17">
          <mxGeometry width="50" height="50" relative="1" as="geometry">
            <mxPoint x="1303.3333333333326" y="605" as="sourcePoint" />
            <mxPoint x="1303.3333333333333" y="664.3333333333335" as="targetPoint" />
            <Array as="points">
              <mxPoint x="1303.3333333333333" y="812.6666666666667" />
              <mxPoint x="1449.722222222222" y="812.6666666666667" />
            </Array>
          </mxGeometry>
        </mxCell>
        <mxCell id="IIdtJhchTJpBkHJc9AqT-24" value="&lt;font style=&quot;font-size: 20px&quot;&gt;{&lt;br&gt;&amp;nbsp; &amp;nbsp; &amp;nbsp; &amp;nbsp; &amp;nbsp; &quot;handlerName&quot;:&quot;Test&quot;,&lt;br&gt;&amp;nbsp; &amp;nbsp; &amp;nbsp; &amp;nbsp; &amp;nbsp; &quot;args&quot;:&quot;Test&quot;,&lt;br&gt;&amp;nbsp; &amp;nbsp; &amp;nbsp; &amp;nbsp; &amp;nbsp; &quot;callbackId&quot;:&quot;dhbridge_callbackId&quot;&lt;br&gt;}&lt;/font&gt;" style="whiteSpace=wrap;html=1;shape=mxgraph.basic.rectCallout;dx=30;dy=15;boundedLbl=1;gradientColor=none;fillColor=#f5f5f5;strokeColor=#666666;gradientDirection=west;align=left;strokeWidth=3;" vertex="1" parent="1">
          <mxGeometry x="945" y="260" width="387" height="167" as="geometry" />
        </mxCell>
        <mxCell id="IIdtJhchTJpBkHJc9AqT-25" value="&lt;font style=&quot;font-size: 23px&quot;&gt;&lt;span style=&quot;white-space: normal&quot;&gt;{&lt;/span&gt;&lt;br style=&quot;white-space: normal&quot;&gt;&lt;span style=&quot;white-space: normal&quot;&gt;&amp;nbsp; &amp;nbsp; &amp;nbsp; &quot;callbackid&quot;:&quot;&lt;/span&gt;dhbridge_callbackId&lt;span style=&quot;white-space: normal&quot;&gt;&quot;,&lt;/span&gt;&lt;br style=&quot;white-space: normal&quot;&gt;&lt;span style=&quot;white-space: normal&quot;&gt;&amp;nbsp; &amp;nbsp; &amp;nbsp; &quot;code&quot;:&quot;200&quot;,&lt;/span&gt;&lt;br style=&quot;white-space: normal&quot;&gt;&lt;span style=&quot;white-space: normal&quot;&gt;&amp;nbsp; &amp;nbsp; &amp;nbsp; &quot;data&quot;:&quot;OK&quot;&lt;/span&gt;&lt;br style=&quot;white-space: normal&quot;&gt;&lt;span style=&quot;white-space: normal&quot;&gt;}&lt;/span&gt;&lt;/font&gt;" style="whiteSpace=wrap;html=1;shape=mxgraph.basic.rectCallout;dx=30;dy=15;boundedLbl=1;gradientColor=none;fillColor=#f5f5f5;strokeColor=#666666;gradientDirection=west;align=left;strokeWidth=3;" vertex="1" parent="1">
          <mxGeometry x="844" y="840" width="402" height="180" as="geometry" />
        </mxCell>
        <mxCell id="IIdtJhchTJpBkHJc9AqT-26" value="" style="endArrow=classic;html=1;strokeColor=#ae4132;strokeWidth=5;fillColor=#fad9d5;" edge="1" parent="1">
          <mxGeometry width="50" height="50" relative="1" as="geometry">
            <mxPoint x="356" y="610" as="sourcePoint" />
            <mxPoint x="256" y="610" as="targetPoint" />
            <Array as="points">
              <mxPoint x="336" y="610" />
            </Array>
          </mxGeometry>
        </mxCell>
        <mxCell id="IIdtJhchTJpBkHJc9AqT-27" value="" style="endArrow=classic;html=1;strokeColor=#996185;entryX=0.5;entryY=0;entryDx=0;entryDy=0;exitX=0.5;exitY=1;exitDx=0;exitDy=0;gradientColor=#d5739d;fillColor=#e6d0de;strokeWidth=5;" edge="1" parent="1">
          <mxGeometry width="50" height="50" relative="1" as="geometry">
            <mxPoint x="1607.592592592593" y="308.16666666666697" as="sourcePoint" />
            <mxPoint x="1607.5925925925922" y="575.1666666666667" as="targetPoint" />
            <Array as="points" />
          </mxGeometry>
        </mxCell>
        <mxCell id="IIdtJhchTJpBkHJc9AqT-28" value="" style="endArrow=none;html=1;strokeColor=#ae4132;strokeWidth=5;exitX=0.5;exitY=1;exitDx=0;exitDy=0;rounded=0;fillColor=#fad9d5;startArrow=classic;startFill=1;" edge="1" parent="1" source="IIdtJhchTJpBkHJc9AqT-8">
          <mxGeometry width="50" height="50" relative="1" as="geometry">
            <mxPoint x="443" y="780" as="sourcePoint" />
            <mxPoint x="583" y="730" as="targetPoint" />
            <Array as="points">
              <mxPoint x="428" y="730" />
            </Array>
          </mxGeometry>
        </mxCell>
        <mxCell id="IIdtJhchTJpBkHJc9AqT-29" value="" style="endArrow=none;html=1;strokeColor=#996185;strokeWidth=5;exitX=0.5;exitY=0;exitDx=0;exitDy=0;rounded=0;fillColor=#e6d0de;gradientColor=#d5739d;startArrow=classic;startFill=1;" edge="1" parent="1" source="IIdtJhchTJpBkHJc9AqT-11">
          <mxGeometry width="50" height="50" relative="1" as="geometry">
            <mxPoint x="1503" y="550" as="sourcePoint" />
            <mxPoint x="1603" y="520" as="targetPoint" />
            <Array as="points">
              <mxPoint x="1433" y="520" />
            </Array>
          </mxGeometry>
        </mxCell>
        <mxCell id="IIdtJhchTJpBkHJc9AqT-30" value="&lt;font style=&quot;font-size: 22px&quot;&gt;HandlerQueue&lt;/font&gt;" style="text;html=1;resizable=0;points=[];autosize=1;align=left;verticalAlign=top;spacingTop=-4;" vertex="1" parent="1">
          <mxGeometry x="1360.7407407407406" y="486.33333333333337" width="160" height="20" as="geometry" />
        </mxCell>
      </root>
    </mxGraphModel>
  </diagram>
</mxfile>
